# xmcd
#
# Track frame offsets: 
#        150
#        14246
#        28280
#        39068
#        51122
#        62446
#        76721
#        90219
#        103002
#        114895
#        130170
#        144378
#        157133
#        172151
#        187257
#        203287
#        221275
#        236429
#        248405
#        259685
#        278177
#        295240
#        305964
#        318252
#        334738
#
# Disc length: 4611 seconds
#
# Revision: 2
# Processed by: cddbd v1.5.2PL0 Copyright (c) Steve Scherf et al.
# Submitted via: ExactAudioCopyFreeDBPlugin 1.0
#
DISCID=5a120119
DTITLE=Various Artist - The Dial Records Southern Soul Story
DYEAR=2003
DGENRE=Soul
TTITLE0=Joe Tex - Skinny Legs and All
TTITLE1=The Dialtones - Don't Let the Sun Shine on Me
TTITLE2=Clarence "Frogman" Henry - Hummin' a Heartache
TTITLE3=Clarence "Frogman" Henry - This Time
TTITLE4=Clarence "Frogman" Henry - That's When I Guessed
TTITLE5=Little Archie - I Need You
TTITLE6=Little Archie - I Am a Carpet
TTITLE7=Chris Harris - Dr. Funky
TTITLE8=Chris Harris - Tell 'em I am Who I Am
TTITLE9=Paul Kelly - Call Another Doctor (On the Case)
TTITLE10=Paul Kelly - We're Gonna Make It
TTITLE11=Frederick Knight - Throw the Switch
TTITLE12=Frederick Knight - I Know Where I've Been
TTITLE13=Annette Snell - Footprints on My Mind
TTITLE14=Annette Snell - I'll Be Your Fool Once More
TTITLE15=Annette Snell - You Oughta Be Here with Me
TTITLE16=Annette Snell - Get Your Thing Together
TTITLE17=Annette Snell - Just as Hooked as I've Ever Been
TTITLE18=Annette Snell - Love Connection
TTITLE19=King Floyd - Can You Dig It?
TTITLE20=King Floyd - Learning to Forget
TTITLE21=Jean Knight - Dirt
TTITLE22=Jean Knight - Jesse Joe (You Got to Go)
TTITLE23=Bobby Marchan - Ain't Nothin' Wrong with My Baby
TTITLE24=Joe Tex - I Gotcha
EXTD=
EXTT0=
EXTT1=
EXTT2=
EXTT3=
EXTT4=
EXTT5=
EXTT6=
EXTT7=
EXTT8=
EXTT9=
EXTT10=
EXTT11=
EXTT12=
EXTT13=
EXTT14=
EXTT15=
EXTT16=
EXTT17=
EXTT18=
EXTT19=
EXTT20=
EXTT21=
EXTT22=
EXTT23=
EXTT24=
PLAYORDER=
